<mxfile host="65bd71144e">
    <diagram name="第 1 页" id="LJO-lJTKcNHDmMOLkAW3">
        <mxGraphModel dx="737" dy="571" grid="1" gridSize="10" guides="1" tooltips="1" connect="1" arrows="1" fold="1" page="1" pageScale="1" pageWidth="1169" pageHeight="827" math="0" shadow="0">
            <root>
                <mxCell id="0"/>
                <mxCell id="1" parent="0"/>
                <mxCell id="DpSDpe85RWFAVzmreB47-55" value="Gltf" style="shape=folder;fontStyle=1;spacingTop=10;tabWidth=40;tabHeight=14;tabPosition=left;html=1;whiteSpace=wrap;verticalAlign=top;" parent="1" vertex="1">
                    <mxGeometry x="230" y="120" width="620" height="480" as="geometry"/>
                </mxCell>
                <mxCell id="DpSDpe85RWFAVzmreB47-42" value="Controllers" style="shape=folder;fontStyle=1;spacingTop=10;tabWidth=40;tabHeight=14;tabPosition=left;html=1;whiteSpace=wrap;verticalAlign=top;" parent="1" vertex="1">
                    <mxGeometry x="250" y="150" width="210" height="430" as="geometry"/>
                </mxCell>
                <mxCell id="DpSDpe85RWFAVzmreB47-41" value="Properties" style="shape=folder;fontStyle=1;spacingTop=10;tabWidth=40;tabHeight=14;tabPosition=left;html=1;whiteSpace=wrap;verticalAlign=top;" parent="1" vertex="1">
                    <mxGeometry x="480" y="150" width="180" height="430" as="geometry"/>
                </mxCell>
                <mxCell id="DpSDpe85RWFAVzmreB47-40" value="Adapters" style="shape=folder;fontStyle=1;spacingTop=10;tabWidth=40;tabHeight=14;tabPosition=left;html=1;whiteSpace=wrap;verticalAlign=top;" parent="1" vertex="1">
                    <mxGeometry x="670" y="150" width="160" height="430" as="geometry"/>
                </mxCell>
                <mxCell id="DpSDpe85RWFAVzmreB47-39" value="UnityEngine" style="shape=folder;fontStyle=1;spacingTop=10;tabWidth=40;tabHeight=14;tabPosition=left;html=1;whiteSpace=wrap;verticalAlign=top;" parent="1" vertex="1">
                    <mxGeometry x="860" y="120" width="120" height="480" as="geometry"/>
                </mxCell>
                <mxCell id="DpSDpe85RWFAVzmreB47-1" value="App" style="swimlane;fontStyle=1;align=center;verticalAlign=top;childLayout=stackLayout;horizontal=1;startSize=26;horizontalStack=0;resizeParent=1;resizeParentMax=0;resizeLast=0;collapsible=1;marginBottom=0;whiteSpace=wrap;html=1;" parent="1" vertex="1">
                    <mxGeometry x="120" y="170" width="80" height="40" as="geometry"/>
                </mxCell>
                <mxCell id="DpSDpe85RWFAVzmreB47-5" value="SceneDescriptionLoader" style="swimlane;fontStyle=1;align=center;verticalAlign=top;childLayout=stackLayout;horizontal=1;startSize=26;horizontalStack=0;resizeParent=1;resizeParentMax=0;resizeLast=0;collapsible=1;marginBottom=0;whiteSpace=wrap;html=1;" parent="1" vertex="1">
                    <mxGeometry x="270" y="210" width="170" height="40" as="geometry"/>
                </mxCell>
                <mxCell id="DpSDpe85RWFAVzmreB47-6" value="ScenesLoader" style="swimlane;fontStyle=1;align=center;verticalAlign=top;childLayout=stackLayout;horizontal=1;startSize=26;horizontalStack=0;resizeParent=1;resizeParentMax=0;resizeLast=0;collapsible=1;marginBottom=0;whiteSpace=wrap;html=1;" parent="1" vertex="1">
                    <mxGeometry x="340" y="270" width="100" height="40" as="geometry"/>
                </mxCell>
                <mxCell id="DpSDpe85RWFAVzmreB47-7" value="NodesLoader" style="swimlane;fontStyle=1;align=center;verticalAlign=top;childLayout=stackLayout;horizontal=1;startSize=26;horizontalStack=0;resizeParent=1;resizeParentMax=0;resizeLast=0;collapsible=1;marginBottom=0;whiteSpace=wrap;html=1;" parent="1" vertex="1">
                    <mxGeometry x="340" y="320" width="100" height="40" as="geometry"/>
                </mxCell>
                <mxCell id="DpSDpe85RWFAVzmreB47-8" value="" style="endArrow=classic;html=1;rounded=0;exitX=0.5;exitY=1;exitDx=0;exitDy=0;entryX=0;entryY=0.5;entryDx=0;entryDy=0;dashed=1;" parent="1" source="DpSDpe85RWFAVzmreB47-1" target="DpSDpe85RWFAVzmreB47-5" edge="1">
                    <mxGeometry width="50" height="50" relative="1" as="geometry">
                        <mxPoint x="480" y="210" as="sourcePoint"/>
                        <mxPoint x="530" y="160" as="targetPoint"/>
                        <Array as="points">
                            <mxPoint x="160" y="230"/>
                        </Array>
                    </mxGeometry>
                </mxCell>
                <mxCell id="DpSDpe85RWFAVzmreB47-11" value="SceneDescription" style="swimlane;fontStyle=1;align=center;verticalAlign=top;childLayout=stackLayout;horizontal=1;startSize=26;horizontalStack=0;resizeParent=1;resizeParentMax=0;resizeLast=0;collapsible=1;marginBottom=0;whiteSpace=wrap;html=1;" parent="1" vertex="1">
                    <mxGeometry x="500" y="210" width="140" height="40" as="geometry"/>
                </mxCell>
                <mxCell id="DpSDpe85RWFAVzmreB47-12" value="Scenes" style="swimlane;fontStyle=1;align=center;verticalAlign=top;childLayout=stackLayout;horizontal=1;startSize=26;horizontalStack=0;resizeParent=1;resizeParentMax=0;resizeLast=0;collapsible=1;marginBottom=0;whiteSpace=wrap;html=1;" parent="1" vertex="1">
                    <mxGeometry x="560" y="270" width="80" height="40" as="geometry"/>
                </mxCell>
                <mxCell id="DpSDpe85RWFAVzmreB47-13" value="Nodes" style="swimlane;fontStyle=1;align=center;verticalAlign=top;childLayout=stackLayout;horizontal=1;startSize=26;horizontalStack=0;resizeParent=1;resizeParentMax=0;resizeLast=0;collapsible=1;marginBottom=0;whiteSpace=wrap;html=1;" parent="1" vertex="1">
                    <mxGeometry x="560" y="320" width="80" height="40" as="geometry"/>
                </mxCell>
                <mxCell id="DpSDpe85RWFAVzmreB47-16" value="" style="endArrow=open;html=1;endSize=12;startArrow=diamondThin;startSize=14;startFill=0;edgeStyle=orthogonalEdgeStyle;rounded=0;exitX=0.25;exitY=1;exitDx=0;exitDy=0;entryX=0;entryY=0.5;entryDx=0;entryDy=0;" parent="1" source="DpSDpe85RWFAVzmreB47-11" target="DpSDpe85RWFAVzmreB47-12" edge="1">
                    <mxGeometry relative="1" as="geometry">
                        <mxPoint x="400" y="190" as="sourcePoint"/>
                        <mxPoint x="560" y="190" as="targetPoint"/>
                        <Array as="points">
                            <mxPoint x="535" y="290"/>
                        </Array>
                    </mxGeometry>
                </mxCell>
                <mxCell id="DpSDpe85RWFAVzmreB47-17" value="1" style="edgeLabel;resizable=0;html=1;align=left;verticalAlign=top;" parent="DpSDpe85RWFAVzmreB47-16" connectable="0" vertex="1">
                    <mxGeometry x="-1" relative="1" as="geometry">
                        <mxPoint y="10" as="offset"/>
                    </mxGeometry>
                </mxCell>
                <mxCell id="DpSDpe85RWFAVzmreB47-18" value="0..*" style="edgeLabel;resizable=0;html=1;align=right;verticalAlign=top;" parent="DpSDpe85RWFAVzmreB47-16" connectable="0" vertex="1">
                    <mxGeometry x="1" relative="1" as="geometry">
                        <mxPoint x="-5" as="offset"/>
                    </mxGeometry>
                </mxCell>
                <mxCell id="DpSDpe85RWFAVzmreB47-24" value="NodeAdapter" style="swimlane;fontStyle=1;align=center;verticalAlign=top;childLayout=stackLayout;horizontal=1;startSize=26;horizontalStack=0;resizeParent=1;resizeParentMax=0;resizeLast=0;collapsible=1;marginBottom=0;whiteSpace=wrap;html=1;" parent="1" vertex="1">
                    <mxGeometry x="710" y="270" width="100" height="40" as="geometry"/>
                </mxCell>
                <mxCell id="DpSDpe85RWFAVzmreB47-25" value="" style="endArrow=open;html=1;endSize=12;startArrow=diamondThin;startSize=14;startFill=0;edgeStyle=orthogonalEdgeStyle;rounded=0;entryX=0;entryY=0.5;entryDx=0;entryDy=0;exitX=1;exitY=0.5;exitDx=0;exitDy=0;" parent="1" source="DpSDpe85RWFAVzmreB47-11" target="DpSDpe85RWFAVzmreB47-24" edge="1">
                    <mxGeometry relative="1" as="geometry">
                        <mxPoint x="610" y="220" as="sourcePoint"/>
                        <mxPoint x="620" y="390" as="targetPoint"/>
                        <Array as="points">
                            <mxPoint x="680" y="230"/>
                            <mxPoint x="680" y="290"/>
                        </Array>
                    </mxGeometry>
                </mxCell>
                <mxCell id="DpSDpe85RWFAVzmreB47-26" value="1" style="edgeLabel;resizable=0;html=1;align=left;verticalAlign=top;" parent="DpSDpe85RWFAVzmreB47-25" connectable="0" vertex="1">
                    <mxGeometry x="-1" relative="1" as="geometry"/>
                </mxCell>
                <mxCell id="DpSDpe85RWFAVzmreB47-27" value="0..*" style="edgeLabel;resizable=0;html=1;align=right;verticalAlign=top;" parent="DpSDpe85RWFAVzmreB47-25" connectable="0" vertex="1">
                    <mxGeometry x="1" relative="1" as="geometry">
                        <mxPoint x="-10" y="-30" as="offset"/>
                    </mxGeometry>
                </mxCell>
                <mxCell id="DpSDpe85RWFAVzmreB47-31" value="" style="endArrow=classic;html=1;rounded=0;exitX=1;exitY=0.5;exitDx=0;exitDy=0;entryX=0;entryY=0.5;entryDx=0;entryDy=0;dashed=1;" parent="1" source="DpSDpe85RWFAVzmreB47-5" target="DpSDpe85RWFAVzmreB47-11" edge="1">
                    <mxGeometry width="50" height="50" relative="1" as="geometry">
                        <mxPoint x="310" y="250" as="sourcePoint"/>
                        <mxPoint x="360" y="310" as="targetPoint"/>
                        <Array as="points"/>
                    </mxGeometry>
                </mxCell>
                <mxCell id="DpSDpe85RWFAVzmreB47-32" value="" style="endArrow=open;html=1;endSize=12;startArrow=diamondThin;startSize=14;startFill=0;edgeStyle=orthogonalEdgeStyle;rounded=0;entryX=0.5;entryY=0;entryDx=0;entryDy=0;exitX=1;exitY=0.5;exitDx=0;exitDy=0;" parent="1" source="DpSDpe85RWFAVzmreB47-1" target="DpSDpe85RWFAVzmreB47-11" edge="1">
                    <mxGeometry relative="1" as="geometry">
                        <mxPoint x="550" y="30" as="sourcePoint"/>
                        <mxPoint x="690" y="170" as="targetPoint"/>
                        <Array as="points">
                            <mxPoint x="570" y="190"/>
                        </Array>
                    </mxGeometry>
                </mxCell>
                <mxCell id="DpSDpe85RWFAVzmreB47-33" value="1" style="edgeLabel;resizable=0;html=1;align=left;verticalAlign=top;" parent="DpSDpe85RWFAVzmreB47-32" connectable="0" vertex="1">
                    <mxGeometry x="-1" relative="1" as="geometry"/>
                </mxCell>
                <mxCell id="DpSDpe85RWFAVzmreB47-34" value="1" style="edgeLabel;resizable=0;html=1;align=right;verticalAlign=top;" parent="DpSDpe85RWFAVzmreB47-32" connectable="0" vertex="1">
                    <mxGeometry x="1" relative="1" as="geometry">
                        <mxPoint x="14" y="-30" as="offset"/>
                    </mxGeometry>
                </mxCell>
                <mxCell id="DpSDpe85RWFAVzmreB47-35" value="Transform" style="swimlane;fontStyle=1;align=center;verticalAlign=top;childLayout=stackLayout;horizontal=1;startSize=26;horizontalStack=0;resizeParent=1;resizeParentMax=0;resizeLast=0;collapsible=1;marginBottom=0;whiteSpace=wrap;html=1;" parent="1" vertex="1">
                    <mxGeometry x="880" y="270" width="80" height="40" as="geometry"/>
                </mxCell>
                <mxCell id="DpSDpe85RWFAVzmreB47-36" value="" style="endArrow=open;html=1;endSize=12;startArrow=diamondThin;startSize=14;startFill=0;edgeStyle=orthogonalEdgeStyle;rounded=0;exitX=1;exitY=0.5;exitDx=0;exitDy=0;" parent="1" source="DpSDpe85RWFAVzmreB47-24" edge="1">
                    <mxGeometry relative="1" as="geometry">
                        <mxPoint x="230" y="150" as="sourcePoint"/>
                        <mxPoint x="880" y="290" as="targetPoint"/>
                        <Array as="points">
                            <mxPoint x="880" y="290"/>
                        </Array>
                    </mxGeometry>
                </mxCell>
                <mxCell id="DpSDpe85RWFAVzmreB47-37" value="1" style="edgeLabel;resizable=0;html=1;align=left;verticalAlign=top;" parent="DpSDpe85RWFAVzmreB47-36" connectable="0" vertex="1">
                    <mxGeometry x="-1" relative="1" as="geometry"/>
                </mxCell>
                <mxCell id="DpSDpe85RWFAVzmreB47-38" value="1" style="edgeLabel;resizable=0;html=1;align=right;verticalAlign=top;" parent="DpSDpe85RWFAVzmreB47-36" connectable="0" vertex="1">
                    <mxGeometry x="1" relative="1" as="geometry">
                        <mxPoint x="-10" as="offset"/>
                    </mxGeometry>
                </mxCell>
                <mxCell id="DpSDpe85RWFAVzmreB47-49" value="" style="endArrow=open;html=1;endSize=12;startArrow=diamondThin;startSize=14;startFill=0;edgeStyle=orthogonalEdgeStyle;rounded=0;entryX=0;entryY=0.5;entryDx=0;entryDy=0;exitX=0.25;exitY=1;exitDx=0;exitDy=0;" parent="1" source="DpSDpe85RWFAVzmreB47-5" target="DpSDpe85RWFAVzmreB47-6" edge="1">
                    <mxGeometry relative="1" as="geometry">
                        <mxPoint x="210" y="150" as="sourcePoint"/>
                        <mxPoint x="550" y="210" as="targetPoint"/>
                        <Array as="points">
                            <mxPoint x="313" y="290"/>
                        </Array>
                    </mxGeometry>
                </mxCell>
                <mxCell id="DpSDpe85RWFAVzmreB47-50" value="1" style="edgeLabel;resizable=0;html=1;align=left;verticalAlign=top;" parent="DpSDpe85RWFAVzmreB47-49" connectable="0" vertex="1">
                    <mxGeometry x="-1" relative="1" as="geometry">
                        <mxPoint y="10" as="offset"/>
                    </mxGeometry>
                </mxCell>
                <mxCell id="DpSDpe85RWFAVzmreB47-51" value="1" style="edgeLabel;resizable=0;html=1;align=right;verticalAlign=top;" parent="DpSDpe85RWFAVzmreB47-49" connectable="0" vertex="1">
                    <mxGeometry x="1" relative="1" as="geometry">
                        <mxPoint x="-10" as="offset"/>
                    </mxGeometry>
                </mxCell>
                <mxCell id="DpSDpe85RWFAVzmreB47-52" value="" style="endArrow=open;html=1;endSize=12;startArrow=diamondThin;startSize=14;startFill=0;edgeStyle=orthogonalEdgeStyle;rounded=0;entryX=0;entryY=0.5;entryDx=0;entryDy=0;exitX=0.25;exitY=1;exitDx=0;exitDy=0;" parent="1" source="DpSDpe85RWFAVzmreB47-5" target="DpSDpe85RWFAVzmreB47-7" edge="1">
                    <mxGeometry relative="1" as="geometry">
                        <mxPoint x="323" y="250" as="sourcePoint"/>
                        <mxPoint x="350" y="310" as="targetPoint"/>
                        <Array as="points">
                            <mxPoint x="313" y="340"/>
                        </Array>
                    </mxGeometry>
                </mxCell>
                <mxCell id="DpSDpe85RWFAVzmreB47-53" value="1" style="edgeLabel;resizable=0;html=1;align=left;verticalAlign=top;" parent="DpSDpe85RWFAVzmreB47-52" connectable="0" vertex="1">
                    <mxGeometry x="-1" relative="1" as="geometry">
                        <mxPoint y="10" as="offset"/>
                    </mxGeometry>
                </mxCell>
                <mxCell id="DpSDpe85RWFAVzmreB47-54" value="1" style="edgeLabel;resizable=0;html=1;align=right;verticalAlign=top;" parent="DpSDpe85RWFAVzmreB47-52" connectable="0" vertex="1">
                    <mxGeometry x="1" relative="1" as="geometry">
                        <mxPoint x="-10" as="offset"/>
                    </mxGeometry>
                </mxCell>
                <mxCell id="rF762pvRSOXgzAiLGD2W-7" value="" style="endArrow=open;html=1;endSize=12;startArrow=diamondThin;startSize=14;startFill=0;edgeStyle=orthogonalEdgeStyle;rounded=0;exitX=0.25;exitY=1;exitDx=0;exitDy=0;entryX=0;entryY=0.5;entryDx=0;entryDy=0;" parent="1" source="DpSDpe85RWFAVzmreB47-11" target="DpSDpe85RWFAVzmreB47-13" edge="1">
                    <mxGeometry relative="1" as="geometry">
                        <mxPoint x="545" y="250" as="sourcePoint"/>
                        <mxPoint x="570" y="310" as="targetPoint"/>
                        <Array as="points">
                            <mxPoint x="535" y="340"/>
                        </Array>
                    </mxGeometry>
                </mxCell>
                <mxCell id="rF762pvRSOXgzAiLGD2W-8" value="1" style="edgeLabel;resizable=0;html=1;align=left;verticalAlign=top;" parent="rF762pvRSOXgzAiLGD2W-7" connectable="0" vertex="1">
                    <mxGeometry x="-1" relative="1" as="geometry">
                        <mxPoint y="10" as="offset"/>
                    </mxGeometry>
                </mxCell>
                <mxCell id="rF762pvRSOXgzAiLGD2W-9" value="0..*" style="edgeLabel;resizable=0;html=1;align=right;verticalAlign=top;" parent="rF762pvRSOXgzAiLGD2W-7" connectable="0" vertex="1">
                    <mxGeometry x="1" relative="1" as="geometry">
                        <mxPoint x="-5" as="offset"/>
                    </mxGeometry>
                </mxCell>
                <mxCell id="2" value="ITriggerAdapter" style="swimlane;fontStyle=1;align=center;verticalAlign=top;childLayout=stackLayout;horizontal=1;startSize=26;horizontalStack=0;resizeParent=1;resizeParentMax=0;resizeLast=0;collapsible=1;marginBottom=0;whiteSpace=wrap;html=1;" parent="1" vertex="1">
                    <mxGeometry x="710" y="370" width="100" height="40" as="geometry"/>
                </mxCell>
                <mxCell id="3" value="Collider" style="swimlane;fontStyle=1;align=center;verticalAlign=top;childLayout=stackLayout;horizontal=1;startSize=26;horizontalStack=0;resizeParent=1;resizeParentMax=0;resizeLast=0;collapsible=1;marginBottom=0;whiteSpace=wrap;html=1;" parent="1" vertex="1">
                    <mxGeometry x="880" y="370" width="80" height="40" as="geometry"/>
                </mxCell>
                <mxCell id="4" value="" style="endArrow=open;html=1;endSize=12;startArrow=diamondThin;startSize=14;startFill=0;edgeStyle=orthogonalEdgeStyle;rounded=0;exitX=1;exitY=0.5;exitDx=0;exitDy=0;entryX=0;entryY=0.5;entryDx=0;entryDy=0;" parent="1" source="2" target="3" edge="1">
                    <mxGeometry relative="1" as="geometry">
                        <mxPoint x="890" y="320" as="sourcePoint"/>
                        <mxPoint x="880" y="390" as="targetPoint"/>
                        <Array as="points"/>
                    </mxGeometry>
                </mxCell>
                <mxCell id="5" value="1" style="edgeLabel;resizable=0;html=1;align=left;verticalAlign=top;" parent="4" connectable="0" vertex="1">
                    <mxGeometry x="-1" relative="1" as="geometry"/>
                </mxCell>
                <mxCell id="6" value="1" style="edgeLabel;resizable=0;html=1;align=right;verticalAlign=top;" parent="4" connectable="0" vertex="1">
                    <mxGeometry x="1" relative="1" as="geometry">
                        <mxPoint x="-10" as="offset"/>
                    </mxGeometry>
                </mxCell>
                <mxCell id="7" value="" style="endArrow=open;html=1;endSize=12;startArrow=diamondThin;startSize=14;startFill=0;edgeStyle=orthogonalEdgeStyle;rounded=0;entryX=0;entryY=0.5;entryDx=0;entryDy=0;exitX=1;exitY=0.5;exitDx=0;exitDy=0;" parent="1" source="DpSDpe85RWFAVzmreB47-11" target="2" edge="1">
                    <mxGeometry relative="1" as="geometry">
                        <mxPoint x="650" y="230" as="sourcePoint"/>
                        <mxPoint x="770" y="280" as="targetPoint"/>
                        <Array as="points">
                            <mxPoint x="680" y="230"/>
                            <mxPoint x="680" y="390"/>
                        </Array>
                    </mxGeometry>
                </mxCell>
                <mxCell id="8" value="1" style="edgeLabel;resizable=0;html=1;align=left;verticalAlign=top;" parent="7" connectable="0" vertex="1">
                    <mxGeometry x="-1" relative="1" as="geometry"/>
                </mxCell>
                <mxCell id="9" value="0..*" style="edgeLabel;resizable=0;html=1;align=right;verticalAlign=top;" parent="7" connectable="0" vertex="1">
                    <mxGeometry x="1" relative="1" as="geometry">
                        <mxPoint x="-10" y="-30" as="offset"/>
                    </mxGeometry>
                </mxCell>
                <mxCell id="10" value="TriggersLoader" style="swimlane;fontStyle=1;align=center;verticalAlign=top;childLayout=stackLayout;horizontal=1;startSize=26;horizontalStack=0;resizeParent=1;resizeParentMax=0;resizeLast=0;collapsible=1;marginBottom=0;whiteSpace=wrap;html=1;" parent="1" vertex="1">
                    <mxGeometry x="340" y="370" width="100" height="40" as="geometry"/>
                </mxCell>
                <mxCell id="11" value="ActionsLoader" style="swimlane;fontStyle=1;align=center;verticalAlign=top;childLayout=stackLayout;horizontal=1;startSize=26;horizontalStack=0;resizeParent=1;resizeParentMax=0;resizeLast=0;collapsible=1;marginBottom=0;whiteSpace=wrap;html=1;" parent="1" vertex="1">
                    <mxGeometry x="340" y="420" width="100" height="40" as="geometry"/>
                </mxCell>
                <mxCell id="12" value="BehaviorsLoader" style="swimlane;fontStyle=1;align=center;verticalAlign=top;childLayout=stackLayout;horizontal=1;startSize=26;horizontalStack=0;resizeParent=1;resizeParentMax=0;resizeLast=0;collapsible=1;marginBottom=0;whiteSpace=wrap;html=1;" parent="1" vertex="1">
                    <mxGeometry x="340" y="470" width="110" height="40" as="geometry"/>
                </mxCell>
                <mxCell id="13" value="ITrigger" style="swimlane;fontStyle=1;align=center;verticalAlign=top;childLayout=stackLayout;horizontal=1;startSize=26;horizontalStack=0;resizeParent=1;resizeParentMax=0;resizeLast=0;collapsible=1;marginBottom=0;whiteSpace=wrap;html=1;" parent="1" vertex="1">
                    <mxGeometry x="560" y="370" width="80" height="40" as="geometry"/>
                </mxCell>
                <mxCell id="14" value="IAction" style="swimlane;fontStyle=1;align=center;verticalAlign=top;childLayout=stackLayout;horizontal=1;startSize=26;horizontalStack=0;resizeParent=1;resizeParentMax=0;resizeLast=0;collapsible=1;marginBottom=0;whiteSpace=wrap;html=1;" parent="1" vertex="1">
                    <mxGeometry x="560" y="420" width="80" height="40" as="geometry"/>
                </mxCell>
                <mxCell id="15" value="Behavior" style="swimlane;fontStyle=1;align=center;verticalAlign=top;childLayout=stackLayout;horizontal=1;startSize=26;horizontalStack=0;resizeParent=1;resizeParentMax=0;resizeLast=0;collapsible=1;marginBottom=0;whiteSpace=wrap;html=1;" parent="1" vertex="1">
                    <mxGeometry x="560" y="470" width="80" height="40" as="geometry"/>
                </mxCell>
                <mxCell id="16" value="" style="endArrow=open;html=1;endSize=12;startArrow=diamondThin;startSize=14;startFill=0;edgeStyle=orthogonalEdgeStyle;rounded=0;entryX=0;entryY=0.5;entryDx=0;entryDy=0;exitX=0.25;exitY=1;exitDx=0;exitDy=0;" parent="1" source="DpSDpe85RWFAVzmreB47-5" target="10" edge="1">
                    <mxGeometry relative="1" as="geometry">
                        <mxPoint x="322.5" y="250" as="sourcePoint"/>
                        <mxPoint x="350" y="350" as="targetPoint"/>
                        <Array as="points">
                            <mxPoint x="313" y="390"/>
                        </Array>
                    </mxGeometry>
                </mxCell>
                <mxCell id="17" value="1" style="edgeLabel;resizable=0;html=1;align=left;verticalAlign=top;" parent="16" connectable="0" vertex="1">
                    <mxGeometry x="-1" relative="1" as="geometry">
                        <mxPoint y="10" as="offset"/>
                    </mxGeometry>
                </mxCell>
                <mxCell id="18" value="1" style="edgeLabel;resizable=0;html=1;align=right;verticalAlign=top;" parent="16" connectable="0" vertex="1">
                    <mxGeometry x="1" relative="1" as="geometry">
                        <mxPoint x="-10" as="offset"/>
                    </mxGeometry>
                </mxCell>
                <mxCell id="19" value="" style="endArrow=open;html=1;endSize=12;startArrow=diamondThin;startSize=14;startFill=0;edgeStyle=orthogonalEdgeStyle;rounded=0;entryX=0;entryY=0.5;entryDx=0;entryDy=0;exitX=0.25;exitY=1;exitDx=0;exitDy=0;" parent="1" source="DpSDpe85RWFAVzmreB47-5" target="11" edge="1">
                    <mxGeometry relative="1" as="geometry">
                        <mxPoint x="310" y="240" as="sourcePoint"/>
                        <mxPoint x="360" y="360" as="targetPoint"/>
                        <Array as="points">
                            <mxPoint x="313" y="440"/>
                        </Array>
                    </mxGeometry>
                </mxCell>
                <mxCell id="20" value="1" style="edgeLabel;resizable=0;html=1;align=left;verticalAlign=top;" parent="19" connectable="0" vertex="1">
                    <mxGeometry x="-1" relative="1" as="geometry">
                        <mxPoint y="10" as="offset"/>
                    </mxGeometry>
                </mxCell>
                <mxCell id="21" value="1" style="edgeLabel;resizable=0;html=1;align=right;verticalAlign=top;" parent="19" connectable="0" vertex="1">
                    <mxGeometry x="1" relative="1" as="geometry">
                        <mxPoint x="-10" as="offset"/>
                    </mxGeometry>
                </mxCell>
                <mxCell id="22" value="" style="endArrow=open;html=1;endSize=12;startArrow=diamondThin;startSize=14;startFill=0;edgeStyle=orthogonalEdgeStyle;rounded=0;entryX=0;entryY=0.5;entryDx=0;entryDy=0;exitX=0.25;exitY=1;exitDx=0;exitDy=0;" parent="1" source="DpSDpe85RWFAVzmreB47-5" target="12" edge="1">
                    <mxGeometry relative="1" as="geometry">
                        <mxPoint x="342.5" y="270" as="sourcePoint"/>
                        <mxPoint x="370" y="370" as="targetPoint"/>
                        <Array as="points">
                            <mxPoint x="313" y="490"/>
                        </Array>
                    </mxGeometry>
                </mxCell>
                <mxCell id="23" value="1" style="edgeLabel;resizable=0;html=1;align=left;verticalAlign=top;" parent="22" connectable="0" vertex="1">
                    <mxGeometry x="-1" relative="1" as="geometry">
                        <mxPoint y="10" as="offset"/>
                    </mxGeometry>
                </mxCell>
                <mxCell id="24" value="1" style="edgeLabel;resizable=0;html=1;align=right;verticalAlign=top;" parent="22" connectable="0" vertex="1">
                    <mxGeometry x="1" relative="1" as="geometry">
                        <mxPoint x="-10" as="offset"/>
                    </mxGeometry>
                </mxCell>
                <mxCell id="25" value="" style="endArrow=open;html=1;endSize=12;startArrow=diamondThin;startSize=14;startFill=0;edgeStyle=orthogonalEdgeStyle;rounded=0;entryX=0;entryY=0.5;entryDx=0;entryDy=0;exitX=0.25;exitY=1;exitDx=0;exitDy=0;" parent="1" source="DpSDpe85RWFAVzmreB47-11" target="13" edge="1">
                    <mxGeometry relative="1" as="geometry">
                        <mxPoint x="530" y="240" as="sourcePoint"/>
                        <mxPoint x="570" y="350" as="targetPoint"/>
                        <Array as="points">
                            <mxPoint x="535" y="390"/>
                        </Array>
                    </mxGeometry>
                </mxCell>
                <mxCell id="26" value="1" style="edgeLabel;resizable=0;html=1;align=left;verticalAlign=top;" parent="25" connectable="0" vertex="1">
                    <mxGeometry x="-1" relative="1" as="geometry">
                        <mxPoint y="10" as="offset"/>
                    </mxGeometry>
                </mxCell>
                <mxCell id="27" value="0..*" style="edgeLabel;resizable=0;html=1;align=right;verticalAlign=top;" parent="25" connectable="0" vertex="1">
                    <mxGeometry x="1" relative="1" as="geometry">
                        <mxPoint x="-5" as="offset"/>
                    </mxGeometry>
                </mxCell>
                <mxCell id="28" value="" style="endArrow=open;html=1;endSize=12;startArrow=diamondThin;startSize=14;startFill=0;edgeStyle=orthogonalEdgeStyle;rounded=0;exitX=0.25;exitY=1;exitDx=0;exitDy=0;entryX=0;entryY=0.5;entryDx=0;entryDy=0;" parent="1" source="DpSDpe85RWFAVzmreB47-11" target="14" edge="1">
                    <mxGeometry relative="1" as="geometry">
                        <mxPoint x="555" y="260" as="sourcePoint"/>
                        <mxPoint x="580" y="360" as="targetPoint"/>
                        <Array as="points">
                            <mxPoint x="535" y="440"/>
                        </Array>
                    </mxGeometry>
                </mxCell>
                <mxCell id="29" value="1" style="edgeLabel;resizable=0;html=1;align=left;verticalAlign=top;" parent="28" connectable="0" vertex="1">
                    <mxGeometry x="-1" relative="1" as="geometry">
                        <mxPoint y="10" as="offset"/>
                    </mxGeometry>
                </mxCell>
                <mxCell id="30" value="0..*" style="edgeLabel;resizable=0;html=1;align=right;verticalAlign=top;" parent="28" connectable="0" vertex="1">
                    <mxGeometry x="1" relative="1" as="geometry">
                        <mxPoint x="-5" as="offset"/>
                    </mxGeometry>
                </mxCell>
                <mxCell id="31" value="" style="endArrow=open;html=1;endSize=12;startArrow=diamondThin;startSize=14;startFill=0;edgeStyle=orthogonalEdgeStyle;rounded=0;exitX=0.25;exitY=1;exitDx=0;exitDy=0;entryX=0;entryY=0.5;entryDx=0;entryDy=0;" parent="1" source="DpSDpe85RWFAVzmreB47-11" target="15" edge="1">
                    <mxGeometry relative="1" as="geometry">
                        <mxPoint x="565" y="270" as="sourcePoint"/>
                        <mxPoint x="590" y="370" as="targetPoint"/>
                        <Array as="points">
                            <mxPoint x="535" y="490"/>
                        </Array>
                    </mxGeometry>
                </mxCell>
                <mxCell id="32" value="1" style="edgeLabel;resizable=0;html=1;align=left;verticalAlign=top;" parent="31" connectable="0" vertex="1">
                    <mxGeometry x="-1" relative="1" as="geometry">
                        <mxPoint y="10" as="offset"/>
                    </mxGeometry>
                </mxCell>
                <mxCell id="33" value="0..*" style="edgeLabel;resizable=0;html=1;align=right;verticalAlign=top;" parent="31" connectable="0" vertex="1">
                    <mxGeometry x="1" relative="1" as="geometry">
                        <mxPoint x="-5" as="offset"/>
                    </mxGeometry>
                </mxCell>
                <mxCell id="34" value="InteractivityController" style="swimlane;fontStyle=1;align=center;verticalAlign=top;childLayout=stackLayout;horizontal=1;startSize=26;horizontalStack=0;resizeParent=1;resizeParentMax=0;resizeLast=0;collapsible=1;marginBottom=0;whiteSpace=wrap;html=1;" parent="1" vertex="1">
                    <mxGeometry x="270" y="520" width="180" height="40" as="geometry"/>
                </mxCell>
                <mxCell id="35" value="" style="endArrow=classic;html=1;rounded=0;exitX=0.5;exitY=1;exitDx=0;exitDy=0;entryX=0;entryY=0.5;entryDx=0;entryDy=0;dashed=1;" parent="1" source="DpSDpe85RWFAVzmreB47-1" target="34" edge="1">
                    <mxGeometry width="50" height="50" relative="1" as="geometry">
                        <mxPoint x="170" y="200" as="sourcePoint"/>
                        <mxPoint x="280" y="230" as="targetPoint"/>
                        <Array as="points">
                            <mxPoint x="160" y="540"/>
                        </Array>
                    </mxGeometry>
                </mxCell>
                <mxCell id="36" value="" style="endArrow=classic;html=1;rounded=0;exitX=1;exitY=0.5;exitDx=0;exitDy=0;entryX=0;entryY=0.5;entryDx=0;entryDy=0;dashed=1;" parent="1" source="34" target="DpSDpe85RWFAVzmreB47-11" edge="1">
                    <mxGeometry width="50" height="50" relative="1" as="geometry">
                        <mxPoint x="450" y="230" as="sourcePoint"/>
                        <mxPoint x="510" y="230" as="targetPoint"/>
                        <Array as="points">
                            <mxPoint x="470" y="540"/>
                            <mxPoint x="470" y="230"/>
                        </Array>
                    </mxGeometry>
                </mxCell>
                <mxCell id="37" value="HapticAdapter" style="swimlane;fontStyle=1;align=center;verticalAlign=top;childLayout=stackLayout;horizontal=1;startSize=26;horizontalStack=0;resizeParent=1;resizeParentMax=0;resizeLast=0;collapsible=1;marginBottom=0;whiteSpace=wrap;html=1;" vertex="1" parent="1">
                    <mxGeometry x="710" y="520" width="100" height="40" as="geometry"/>
                </mxCell>
                <mxCell id="38" value="" style="endArrow=open;html=1;endSize=12;startArrow=diamondThin;startSize=14;startFill=0;edgeStyle=orthogonalEdgeStyle;rounded=0;entryX=0;entryY=0.5;entryDx=0;entryDy=0;exitX=1;exitY=0.5;exitDx=0;exitDy=0;" edge="1" parent="1" source="DpSDpe85RWFAVzmreB47-11" target="37">
                    <mxGeometry relative="1" as="geometry">
                        <mxPoint x="650" y="240" as="sourcePoint"/>
                        <mxPoint x="720" y="400" as="targetPoint"/>
                        <Array as="points">
                            <mxPoint x="680" y="230"/>
                            <mxPoint x="680" y="540"/>
                        </Array>
                    </mxGeometry>
                </mxCell>
                <mxCell id="39" value="1" style="edgeLabel;resizable=0;html=1;align=left;verticalAlign=top;" connectable="0" vertex="1" parent="38">
                    <mxGeometry x="-1" relative="1" as="geometry"/>
                </mxCell>
                <mxCell id="40" value="1" style="edgeLabel;resizable=0;html=1;align=right;verticalAlign=top;" connectable="0" vertex="1" parent="38">
                    <mxGeometry x="1" relative="1" as="geometry">
                        <mxPoint x="-20" y="-30" as="offset"/>
                    </mxGeometry>
                </mxCell>
                <mxCell id="41" value="MPEG Haptic Codec DLL" style="whiteSpace=wrap;html=1;shape=mxgraph.basic.document" vertex="1" parent="1">
                    <mxGeometry x="1000" y="450" width="90" height="60" as="geometry"/>
                </mxCell>
                <mxCell id="43" value="NeuroDigital HapticSystem" style="whiteSpace=wrap;html=1;shape=mxgraph.basic.document" vertex="1" parent="1">
                    <mxGeometry x="1000" y="530" width="90" height="60" as="geometry"/>
                </mxCell>
                <mxCell id="44" value="" style="endArrow=classic;html=1;rounded=0;dashed=1;exitX=1;exitY=0.5;exitDx=0;exitDy=0;entryX=0;entryY=0.5;entryDx=0;entryDy=0;entryPerimeter=0;" edge="1" parent="1" source="37" target="41">
                    <mxGeometry width="50" height="50" relative="1" as="geometry">
                        <mxPoint x="690" y="680" as="sourcePoint"/>
                        <mxPoint x="940" y="680" as="targetPoint"/>
                        <Array as="points">
                            <mxPoint x="910" y="540"/>
                            <mxPoint x="910" y="480"/>
                        </Array>
                    </mxGeometry>
                </mxCell>
                <mxCell id="45" value="" style="endArrow=classic;html=1;rounded=0;dashed=1;exitX=1;exitY=0.5;exitDx=0;exitDy=0;entryX=0;entryY=0.5;entryDx=0;entryDy=0;entryPerimeter=0;" edge="1" parent="1" source="37" target="43">
                    <mxGeometry width="50" height="50" relative="1" as="geometry">
                        <mxPoint x="840" y="660" as="sourcePoint"/>
                        <mxPoint x="1030" y="600" as="targetPoint"/>
                        <Array as="points">
                            <mxPoint x="910" y="540"/>
                            <mxPoint x="910" y="560"/>
                        </Array>
                    </mxGeometry>
                </mxCell>
            </root>
        </mxGraphModel>
    </diagram>
</mxfile>